<?xml version="1.0" encoding="UTF-8"?>
<svg xmlns="http://www.w3.org/2000/svg" xmlns:xlink="http://www.w3.org/1999/xlink" width="50px" height="83px" viewBox="0 0 50 82" version="1.1">
<defs>
<clipPath id="clip1">
  <path d="M 0.5 0 L 50 0 L 50 82 L 0.5 82 Z M 0.5 0 "/>
</clipPath>
</defs>
<g id="surface1">
<g clip-path="url(#clip1)" clip-rule="nonzero">
<path style="fill-rule:evenodd;fill:rgb(32.156863%,80%,60%);fill-opacity:1;stroke-width:1;stroke-linecap:butt;stroke-linejoin:miter;stroke:rgb(0%,0%,0%);stroke-opacity:1;stroke-miterlimit:4;" d="M 436.765249 589.717767 C 428.270715 589.717767 411.266202 598.318617 411.266202 605.611214 L 411.266202 622.933758 C 404.413945 623.133411 403.291637 628.823528 405.05747 628.823528 L 411.266202 628.823528 L 411.086015 683.286825 C 411.065423 689.91216 425.011903 699.001636 436.765249 699.001636 C 448.513446 699.001636 462.465075 689.91216 462.444482 683.286825 L 462.398148 668.880269 L 462.264295 628.823528 L 468.473027 628.823528 C 470.23886 628.823528 469.116552 623.133411 462.264295 622.933758 L 462.264295 605.611214 C 462.264295 598.318617 445.259782 589.717767 436.765249 589.717767 Z M 436.765249 589.717767 " transform="matrix(0.75876,0,0,0.743477,-305.9,-438.066364)"/>
</g>
<path style="fill-rule:evenodd;fill:rgb(100%,100%,100%);fill-opacity:1;stroke-width:0.25;stroke-linecap:butt;stroke-linejoin:miter;stroke:rgb(49.019608%,49.019608%,49.019608%);stroke-opacity:1;stroke-miterlimit:4;" d="M 416.625481 634.539915 C 416.532813 629.291137 429.799731 625.623822 436.765249 625.534504 C 443.730766 625.445185 456.905016 630.951411 456.905016 634.539915 C 456.905016 638.128419 456.905016 638.159943 456.905016 642.746713 C 443.478504 642.746713 430.051993 642.746713 416.625481 642.746713 C 416.625481 638.159943 416.718149 639.783439 416.625481 634.539915 Z M 416.625481 675.52662 C 424.013151 677.633487 431.802382 680.507442 439.586463 680.108136 C 445.476007 679.766624 451.298624 677.15537 456.905016 675.52662 C 456.905016 671.438983 456.905016 670.761213 456.905016 666.67883 C 443.478504 666.67883 430.051993 666.67883 416.625481 666.67883 C 416.625481 670.761213 416.625481 671.438983 416.625481 675.52662 Z M 416.625481 675.52662 " transform="matrix(0.75876,0,0,0.743477,-305.9,-438.066364)"/>
<path style="fill-rule:evenodd;fill:rgb(100%,100%,100%);fill-opacity:1;stroke-width:0.197;stroke-linecap:butt;stroke-linejoin:miter;stroke:rgb(49.019608%,49.019608%,49.019608%);stroke-opacity:1;stroke-miterlimit:4;" d="M 427.040294 603.725016 C 427.040294 606.58321 425.176645 608.900238 422.875399 608.900238 C 420.574152 608.900238 418.705355 606.58321 418.705355 603.725016 Z M 427.040294 603.725016 " transform="matrix(0.75876,0,0,0.743477,-305.9,-438.066364)"/>
<path style="fill-rule:evenodd;fill:rgb(100%,100%,100%);fill-opacity:1;stroke-width:0.197;stroke-linecap:butt;stroke-linejoin:miter;stroke:rgb(49.019608%,49.019608%,49.019608%);stroke-opacity:1;stroke-miterlimit:4;" d="M 454.819994 603.788065 C 454.819994 606.646258 452.956345 608.963286 450.655098 608.963286 C 448.353852 608.963286 446.485055 606.646258 446.485055 603.788065 Z M 454.819994 603.788065 " transform="matrix(0.75876,0,0,0.743477,-305.9,-438.066364)"/>
</g>
</svg>
