<?xml version="1.0" encoding="UTF-8"?>
<svg xmlns="http://www.w3.org/2000/svg" xmlns:xlink="http://www.w3.org/1999/xlink" width="50px" height="83px" viewBox="0 0 50 82" version="1.1">
<g id="surface1">
<path style="fill-rule:evenodd;fill:rgb(100%,0%,0%);fill-opacity:1;stroke-width:1;stroke-linecap:butt;stroke-linejoin:miter;stroke:rgb(0%,0%,0%);stroke-opacity:1;stroke-miterlimit:4;" d="M 436.76474 589.718784 C 428.270225 589.718784 411.26575 598.31965 411.26575 605.61226 L 411.26575 622.934835 C 404.413507 623.134489 403.291202 628.824616 405.057031 628.824616 L 411.26575 628.824616 L 411.085563 683.288012 C 411.06497 689.913358 425.016568 699.00285 436.76474 699.00285 C 448.512912 699.00285 462.46451 689.913358 462.443918 683.288012 L 462.397584 668.88143 L 462.263731 628.824616 L 468.472449 628.824616 C 470.238279 628.824616 469.115973 623.134489 462.263731 622.934835 L 462.263731 605.61226 C 462.263731 598.31965 445.259256 589.718784 436.76474 589.718784 Z M 436.76474 589.718784 " transform="matrix(0.758762,0,0,0.743475,-306.400335,-438.066329)"/>
<path style="fill-rule:evenodd;fill:rgb(100%,100%,100%);fill-opacity:1;stroke-width:0.25;stroke-linecap:butt;stroke-linejoin:miter;stroke:rgb(49.019608%,49.019608%,49.019608%);stroke-opacity:1;stroke-miterlimit:4;" d="M 416.625017 634.535759 C 416.532349 629.292226 429.799238 625.624905 436.76474 625.535586 C 443.730243 625.446267 456.904464 630.952503 456.904464 634.535759 C 456.904464 638.12427 456.904464 638.155794 456.904464 642.747826 C 443.477982 642.747826 430.051499 642.747826 416.625017 642.747826 C 416.625017 638.155794 416.717684 639.784547 416.625017 634.535759 Z M 416.625017 634.535759 " transform="matrix(0.758762,0,0,0.743475,-306.400335,-438.066329)"/>
<path style="fill-rule:evenodd;fill:rgb(100%,100%,100%);fill-opacity:1;stroke-width:0.25;stroke-linecap:butt;stroke-linejoin:miter;stroke:rgb(49.019608%,49.019608%,49.019608%);stroke-opacity:1;stroke-miterlimit:4;" d="M 416.625017 675.522538 C 424.012671 677.634663 431.801884 680.508624 439.591097 680.109317 C 445.47548 679.767804 451.298084 677.151291 456.904464 675.522538 C 456.904464 671.440148 456.904464 670.762376 456.904464 666.679986 C 443.477982 666.679986 430.051499 666.679986 416.625017 666.679986 C 416.625017 670.762376 416.625017 671.440148 416.625017 675.522538 Z M 416.625017 675.522538 " transform="matrix(0.758762,0,0,0.743475,-306.400335,-438.066329)"/>
<path style="fill-rule:evenodd;fill:rgb(100%,100%,100%);fill-opacity:1;stroke-width:0.197101;stroke-linecap:butt;stroke-linejoin:miter;stroke:rgb(49.019608%,49.019608%,49.019608%);stroke-opacity:1;stroke-miterlimit:4;" d="M 504.821828 605.371211 C 504.821828 607.392864 503.184079 609.03174 501.161776 609.03174 C 499.139473 609.03174 497.501724 607.392864 497.501724 605.371211 Z M 504.821828 605.371211 " transform="matrix(0.863418,0,0,-1.05112,-418.251363,647.10697)"/>
<path style="fill-rule:evenodd;fill:rgb(100%,100%,100%);fill-opacity:1;stroke-width:0.197101;stroke-linecap:butt;stroke-linejoin:miter;stroke:rgb(49.019608%,49.019608%,49.019608%);stroke-opacity:1;stroke-miterlimit:4;" d="M 504.822205 605.371247 C 504.822205 607.3929 503.184456 609.031777 501.162153 609.031777 C 499.13985 609.031777 497.502101 607.3929 497.502101 605.371247 Z M 504.822205 605.371247 " transform="matrix(0.863418,0,0,-1.05112,-397.173563,647.153883)"/>
</g>
</svg>
