<?xml version="1.0" encoding="UTF-8"?>
<svg xmlns="http://www.w3.org/2000/svg" xmlns:xlink="http://www.w3.org/1999/xlink" width="30px" height="30px" viewBox="0 0 30 30" version="1.1">
<g id="surface1">
<path style=" stroke:none;fill-rule:nonzero;fill:rgb(32.156863%,80%,60%);fill-opacity:1;" d="M 30 15 C 30 23.285156 23.285156 30 15 30 C 6.714844 30 0 23.285156 0 15 C 0 6.714844 6.714844 0 15 0 C 23.285156 0 30 6.714844 30 15 Z M 30 15 "/>
<path style=" stroke:none;fill-rule:nonzero;fill:rgb(23.137255%,74.117647%,38.823529%);fill-opacity:1;" d="M 4.394531 4.394531 C 10.25 -1.464844 19.75 -1.464844 25.605469 4.394531 C 31.464844 10.25 31.464844 19.75 25.605469 25.605469 "/>
<path style=" stroke:none;fill-rule:nonzero;fill:rgb(15.294118%,43.529412%,23.529412%);fill-opacity:1;" d="M 20.121094 9.164062 C 19.019531 8.171875 17.390625 7.671875 15.277344 7.671875 C 13.898438 7.671875 12.640625 7.769531 11.425781 7.972656 C 10.941406 8.050781 10.585938 8.472656 10.585938 8.960938 L 10.585938 23.671875 C 10.585938 24.222656 11.035156 24.675781 11.589844 24.675781 L 13.511719 24.675781 C 14.066406 24.675781 14.515625 24.222656 14.515625 23.671875 L 14.515625 18.835938 C 16.972656 18.921875 19.0625 18.25 20.324219 16.90625 C 21.277344 15.925781 21.757812 14.621094 21.757812 13.023438 C 21.757812 11.449219 21.171875 10.070312 20.121094 9.164062 Z M 17.828125 13.113281 C 17.828125 14.558594 16.910156 15.289062 15.101562 15.289062 C 14.886719 15.289062 14.691406 15.285156 14.515625 15.273438 L 14.515625 11.226562 C 14.742188 11.210938 15.011719 11.203125 15.320312 11.203125 C 17.828125 11.203125 17.828125 12.640625 17.828125 13.113281 Z M 17.828125 13.113281 "/>
<path style=" stroke:none;fill-rule:nonzero;fill:rgb(100%,100%,100%);fill-opacity:1;" d="M 18.949219 7.992188 C 17.847656 7 16.21875 6.5 14.105469 6.5 C 12.726562 6.5 11.46875 6.597656 10.253906 6.800781 C 9.769531 6.878906 9.414062 7.300781 9.414062 7.789062 L 9.414062 22.5 C 9.414062 23.050781 9.863281 23.503906 10.417969 23.503906 L 12.339844 23.503906 C 12.894531 23.503906 13.34375 23.050781 13.34375 22.5 L 13.34375 17.664062 C 15.800781 17.75 17.890625 17.078125 19.152344 15.734375 C 20.105469 14.753906 20.585938 13.449219 20.585938 11.851562 C 20.585938 10.277344 20 8.898438 18.949219 7.992188 Z M 16.65625 11.941406 C 16.65625 13.386719 15.738281 14.117188 13.929688 14.117188 C 13.714844 14.117188 13.519531 14.113281 13.34375 14.101562 L 13.34375 10.054688 C 13.570312 10.039062 13.839844 10.03125 14.148438 10.03125 C 16.65625 10.03125 16.65625 11.46875 16.65625 11.941406 Z M 16.65625 11.941406 "/>
<path style=" stroke:none;fill-rule:nonzero;fill:rgb(81.176471%,86.666667%,89.803922%);fill-opacity:1;" d="M 18.949219 7.992188 C 17.847656 7 16.21875 6.5 14.105469 6.5 C 12.726562 6.5 11.46875 6.597656 10.253906 6.800781 C 9.769531 6.878906 9.414062 7.300781 9.414062 7.789062 L 9.414062 9.414062 L 13.34375 13.34375 L 13.34375 10.054688 C 13.570312 10.039062 13.839844 10.03125 14.148438 10.03125 C 16.660156 10.03125 16.660156 11.46875 16.660156 11.941406 C 16.660156 13.335938 15.796875 14.058594 14.109375 14.109375 L 17.085938 17.082031 C 17.902344 16.761719 18.609375 16.3125 19.15625 15.730469 C 20.105469 14.753906 20.585938 13.449219 20.585938 11.851562 C 20.585938 10.277344 20 8.898438 18.949219 7.992188 Z M 18.949219 7.992188 "/>
</g>
</svg>
