<?xml version="1.0" encoding="UTF-8"?>
<svg xmlns="http://www.w3.org/2000/svg" xmlns:xlink="http://www.w3.org/1999/xlink" width="30px" height="30px" viewBox="0 0 30 30" version="1.1">
<g id="surface1">
<path style=" stroke:none;fill-rule:nonzero;fill:rgb(0%,0%,0%);fill-opacity:1;" d="M 15 0.300781 C 8.632812 0.300781 3.449219 5.480469 3.449219 11.851562 C 3.449219 17.996094 13.800781 28.914062 14.242188 29.371094 C 14.4375 29.582031 14.714844 29.695312 15 29.695312 L 15.023438 29.695312 C 15.316406 29.695312 15.597656 29.558594 15.792969 29.335938 L 19.378906 25.234375 C 24.136719 19.402344 26.550781 14.898438 26.550781 11.851562 C 26.550781 5.480469 21.367188 0.300781 15 0.300781 Z M 15 17.101562 C 12.097656 17.101562 9.75 14.75 9.75 11.851562 C 9.75 8.949219 12.097656 6.601562 15 6.601562 C 17.902344 6.601562 20.25 8.949219 20.25 11.851562 C 20.25 14.75 17.902344 17.101562 15 17.101562 Z M 15 17.101562 "/>
</g>
</svg>
